<svg version="1.0" xmlns="http://www.w3.org/2000/svg" width="800.000000" height="800.000000" viewBox="0 0 800.000000 800.000000" preserveAspectRatio="xMidYMid meet">
  <metadata>
    <rdf:RDF xmlns:rdf="http://www.w3.org/1999/02/22-rdf-syntax-ns#" xmlns:rdfs="http://www.w3.org/2000/01/rdf-schema#" xmlns:dc="http://purl.org/dc/elements/1.1/">
      <rdf:Description dc:format="image/svg+xml" dc:Label="1" dc:ContentProducer="001191330110MACRLGPT8B00000" dc:ProduceID="310776549" dc:ReservedCode1="ENOrl9QNwAc7TuX0l5VFTuTNM+jz+meKJfsGKBK2n+g=" dc:ContentPropagator="001191330110MACRLGPT8B00000" dc:PropagateID="310776549" dc:ReservedCode2="ENOrl9QNwAc7TuX0l5VFTuTNM+jz+meKJfsGKBK2n+g="/>
    </rdf:RDF>
  </metadata>
  <g transform="translate(176.498540,627.653011) scale(0.056166,-0.056166)" fill="#000000" stroke="none">
    <path d="M3655 7783 c-16 -2 -88 -10 -160 -19 -729 -88 -1464 -426 -2017 -928 -697 -631 -1125 -1471 -1223 -2401 -17 -163 -20 -556 -5 -725 57 -638 291 -1270 667 -1808 345 -493 824 -906 1370 -1183 794 -403 1694 -505 2573 -293 663 159 1290 514 1781 1007 348 349 637 792 818 1252 191 486 272 944 258 1465 -22 805 -275 1521 -767 2175 -125 165 -362 414 -550 578 -400 347 -967 642 -1480 772 -350 88 -587 115 -975 113 -143 0 -273 -3 -290 -5z m725 -188 c669 -79 1295 -342 1830 -769 149 -120 427 -394 532 -526 445 -561 694 -1152 780 -1850 8 -65 13 -220 13 -410 -1 -343 -14 -476 -80 -770 -141 -633 -459 -1215 -920 -1689 -839 -862 -2042 -1244 -3225 -1025 -551 102 -1102 357 -1567 725 -146 116 -411 378 -525 519 -366 456 -614 974 -727 1520 -149 725 -82 1434 201 2115 258 623 741 1206 1308 1580 539 356 1094 545 1755 599 102 8 494 -4 625 -19z"/>
    <path d="M2418 6778 c-20 -35 -45 -82 -57 -105 -23 -47 -22 -46 -151 -63 -106 -14 -130 -20 -130 -31 0 -4 41 -49 91 -98 l92 -89 -17 -90 c-9 -49 -16 -106 -16 -125 0 -36 0 -36 31 -25 18 6 71 32 118 58 l86 48 107 -54 c94 -47 138 -63 138 -50 0 2 -9 57 -21 121 l-20 119 85 85 c77 78 101 111 79 111 -16 1 -246 40 -248 42 -2 2 -17 32 -35 68 -41 81 -78 140 -88 140 -4 0 -24 -28 -44 -62z"/>
    <path d="M3623 5629 c-120 -20 -240 -86 -337 -185 -69 -70 -150 -225 -170 -324 -13 -63 -12 -65 8 -72 12 -3 40 -6 63 -7 l42 -1 18 58 c21 70 51 122 68 122 7 0 36 29 64 64 105 134 250 193 404 166 162 -30 276 -144 307 -310 29 -151 -19 -322 -133 -472 -41 -55 -204 -239 -602 -683 -298 -332 -286 -317 -283 -384 l3 -56 614 0 c604 0 613 0 621 20 9 23 30 285 30 369 l0 56 -55 0 c-49 0 -55 -2 -59 -22 -3 -13 -13 -61 -22 -107 -10 -47 -25 -92 -34 -101 -14 -14 -54 -18 -281 -23 -363 -9 -519 -9 -519 2 0 5 3 11 8 13 14 6 638 688 705 771 175 216 240 443 192 672 -63 300 -342 486 -652 434z"/>
    <path d="M2148 5615 c-131 -32 -271 -120 -346 -217 -49 -64 -106 -181 -127 -263 -24 -96 -25 -95 48 -95 l64 0 18 63 c19 63 33 91 68 137 l19 25 -6 -25 c-7 -24 -6 -24 16 5 114 149 243 214 400 203 103 -8 178 -39 241 -101 79 -78 109 -150 115 -270 6 -116 -7 -183 -52 -282 -55 -118 -128 -206 -720 -863 -263 -293 -256 -282 -256 -350 l0 -54 619 4 c341 1 621 5 624 8 3 3 10 77 16 165 6 88 14 188 17 223 l6 62 -59 0 -58 0 -22 -111 c-32 -166 -2 -153 -366 -157 -166 -2 -340 -2 -387 0 l-85 3 225 244 c465 504 546 602 624 758 50 99 69 187 70 313 0 289 -160 509 -419 575 -72 18 -210 18 -287 0z"/>
    <path d="M5375 4973 c-251 -74 -245 -72 -245 -106 0 -46 9 -53 68 -60 29 -3 57 -9 62 -12 6 -4 10 -204 10 -541 l0 -536 -50 -21 -50 -21 0 -48 0 -48 210 0 210 0 0 53 0 53 -57 14 -58 15 -3 268 -2 268 67 32 c120 57 232 37 277 -49 19 -36 21 -60 24 -275 l4 -237 -23 -16 c-13 -9 -34 -16 -46 -16 -21 0 -23 -4 -23 -55 l0 -55 205 0 205 0 0 48 0 48 -56 18 c-30 10 -57 23 -59 29 -3 7 -8 136 -13 287 -10 304 -12 317 -77 388 -49 55 -113 76 -211 70 -91 -6 -187 -50 -237 -108 -19 -22 -37 -40 -40 -40 -4 0 -7 151 -7 335 0 379 9 346 -85 318z"/>
    <path d="M4780 4660 c0 -32 -47 -117 -91 -165 -40 -43 -101 -80 -152 -90 -26 -5 -28 -9 -25 -48 l3 -42 71 -3 71 -3 5 -292 c5 -243 8 -299 22 -332 38 -91 112 -131 224 -123 75 6 176 45 212 83 20 21 20 26 9 65 -14 47 -21 48 -109 15 -55 -20 -99 -13 -131 21 -24 26 -24 26 -27 295 l-3 269 115 0 114 0 4 60 3 59 -115 3 -115 3 -3 123 -3 122 -39 0 c-34 0 -40 -3 -40 -20z"/>
    <path d="M2841 3025 c-122 -76 -179 -157 -276 -395 -79 -193 -125 -277 -177 -326 -37 -34 -55 -44 -81 -44 -56 0 -83 44 -61 99 22 53 18 90 -11 101 -30 11 -81 -5 -95 -30 -15 -28 -12 -87 5 -120 44 -85 211 -100 338 -32 99 53 152 134 231 357 91 254 118 311 199 413 18 22 -16 12 -72 -23z"/>
    <path d="M2951 2964 c1 -99 -27 -179 -77 -223 -19 -17 -39 -31 -44 -31 -15 0 -12 -23 11 -75 41 -92 10 -222 -76 -322 -19 -23 -35 -46 -35 -52 0 -17 71 -12 115 8 48 21 110 88 136 145 35 78 19 169 -42 232 l-30 31 44 26 c92 54 136 133 123 222 -9 56 -47 102 -93 111 l-32 6 0 -78z"/>
    <path d="M4067 2908 c-56 -97 -263 -528 -281 -585 -7 -22 -5 -23 59 -23 59 0 66 2 74 23 5 12 75 156 155 320 80 164 146 300 146 303 0 2 -29 4 -64 4 l-64 0 -25 -42z"/>
    <path d="M3718 2728 c-163 -313 -187 -379 -149 -417 13 -13 34 -21 55 -21 31 0 34 3 45 43 6 24 71 166 146 315 74 150 135 274 135 277 0 3 -28 5 -63 5 l-63 0 -106 -202z"/>
    <path d="M4842 2918 c-13 -17 -184 -341 -239 -452 -23 -49 -43 -102 -43 -117 0 -38 26 -61 64 -57 27 3 35 11 65 68 18 36 91 176 162 311 71 135 129 249 129 252 0 13 -127 8 -138 -5z"/>
    <path d="M3241 2894 c-56 -72 22 -155 87 -94 25 23 31 87 10 108 -22 22 -75 14 -97 -14z"/>
    <path d="M3385 2693 c3 -16 13 -36 22 -45 19 -21 14 -37 -53 -166 -30 -57 -54 -115 -54 -132 0 -49 51 -85 87 -62 19 12 143 264 143 290 0 34 -28 71 -70 92 -21 11 -40 26 -43 35 -4 8 -14 15 -23 15 -13 0 -15 -6 -9 -27z"/>
    <path d="M5467 2668 c-26 -21 -129 -248 -134 -298 -6 -53 18 -84 62 -78 22 3 31 14 55 73 16 39 44 99 64 135 43 79 49 140 14 164 -27 19 -39 20 -61 4z"/>
    <path d="M4150 2563 c-29 -60 -58 -126 -67 -148 -27 -74 2 -131 63 -123 22 3 34 20 82 123 62 136 76 203 47 235 -10 11 -31 20 -46 20 -25 0 -32 -9 -79 -107z"/>
    <path d="M4497 2656 c-108 -48 -199 -193 -180 -288 8 -43 47 -78 85 -78 33 0 33 0 30 43 -3 30 4 60 22 101 29 65 109 184 137 204 11 7 19 17 19 23 0 13 -80 10 -113 -5z"/>
    <path d="M4985 2651 c-49 -22 -130 -107 -155 -164 -25 -54 -26 -137 -2 -166 9 -12 33 -24 53 -27 l36 -6 6 55 c3 30 18 78 33 108 28 56 98 164 121 187 33 34 -28 43 -92 13z"/>
    <path d="M5261 2660 l-65 -5 -68 -125 c-73 -135 -87 -178 -69 -216 8 -18 18 -24 45 -24 18 0 38 6 44 13 18 22 183 348 180 355 -2 4 -32 5 -67 2z"/>
    <path d="M3142 2648 c-6 -7 -38 -69 -71 -137 -81 -165 -82 -221 -4 -221 33 0 34 1 123 180 49 99 90 182 90 185 0 11 -128 4 -138 -7z"/>
    <path d="M5581 2413 c-68 -137 -152 -299 -187 -360 -35 -62 -64 -115 -64 -118 0 -3 12 -5 28 -5 40 0 128 55 161 100 25 35 321 610 321 624 0 3 -30 6 -68 6 l-67 0 -124 -247z"/>
  </g>
</svg>